<svg width="176" height="53" viewBox="0 0 176 53" fill="none" xmlns="http://www.w3.org/2000/svg">
<path d="M65.7644 32.5856C65.0068 32.5856 64.3435 32.3927 63.7756 32.0059C63.2102 31.6169 62.7712 31.0451 62.4613 30.2893C62.1538 29.5347 62 28.653 62 27.6454C62 26.0937 62.3472 24.8799 63.0415 24.0026C63.7359 23.1231 64.6907 22.6829 65.9083 22.6829C66.4997 22.6829 67.0193 22.7899 67.4656 23.0039C67.9145 23.2179 68.3249 23.5779 68.6957 24.0829H68.7701C68.651 23.3338 68.5915 22.5848 68.5915 21.8357V19.2809H72.2915V32.4161H69.5239L68.7353 31.2078H68.5915C67.9591 32.1263 67.0168 32.5856 65.7644 32.5856ZM67.2673 29.9772C67.855 29.9772 68.2704 29.8112 68.5121 29.4779C68.7527 29.1457 68.8841 28.6329 68.904 27.9396V27.681C68.904 26.8372 68.7676 26.2364 68.4973 25.8797C68.2294 25.5208 67.8079 25.3402 67.2325 25.3402C66.749 25.3402 66.3745 25.5453 66.1067 25.9555C65.8413 26.3635 65.7099 26.9442 65.7099 27.6989C65.7099 28.439 65.8438 29.0041 66.1116 29.3932C66.3819 29.7833 66.7676 29.9772 67.2673 29.9772Z" fill="white"/>
<path d="M79.9641 32.5854C78.1947 32.5854 76.8196 32.1619 75.8376 31.3147C74.858 30.4676 74.3695 29.2626 74.3695 27.6987C74.3695 26.0825 74.8221 24.843 75.7285 23.9802C76.6374 23.1152 77.9331 22.6827 79.6169 22.6827C81.2202 22.6827 82.4589 23.0595 83.3318 23.8108C84.2047 24.5598 84.6411 25.6422 84.6411 27.0567V28.5236H78.0794C78.1017 29.0586 78.3187 29.4778 78.7291 29.7809C79.1383 30.0841 79.6975 30.2357 80.4055 30.2357C81.0503 30.2357 81.643 30.1822 82.1861 30.0752C82.7279 29.966 83.3144 29.7787 83.9468 29.5134V31.8854C83.3714 32.1507 82.7763 32.3335 82.1613 32.4339C81.5487 32.5342 80.8172 32.5854 79.9641 32.5854ZM79.7508 24.9255C79.3169 24.9255 78.9548 25.0492 78.6646 25.2955C78.3733 25.5396 78.2034 25.9231 78.1538 26.4459H81.3082C81.2946 25.9855 81.1495 25.6165 80.8717 25.3401C80.594 25.0637 80.2195 24.9255 79.7508 24.9255Z" fill="white"/>
<path d="M93.2185 22.6829C94.3753 22.6829 95.2929 23.1198 95.9711 23.9937C96.6518 24.8654 96.9928 26.0714 96.9928 27.6141C96.9928 29.1658 96.6481 30.383 95.9612 31.2658C95.2768 32.1464 94.3245 32.5856 93.1044 32.5856C92.7101 32.5856 92.3604 32.5465 92.0529 32.4696C91.7454 32.3961 91.4701 32.2913 91.2296 32.1575C90.9915 32.0215 90.7113 31.7953 90.3914 31.4798H90.1682L89.583 32.4161H86.7212V19.2809H90.3914V22.2504C90.3914 22.6048 90.348 23.2157 90.2625 24.0829H90.3914C90.7485 23.5868 91.1602 23.2302 91.6264 23.0128C92.0926 22.7932 92.6233 22.6829 93.2185 22.6829ZM91.8744 25.2733C91.361 25.2733 90.9866 25.4339 90.7485 25.7549C90.5104 26.0759 90.3914 26.5797 90.3914 27.2664V27.7301C90.3914 28.5126 90.5104 29.0744 90.7485 29.4154C90.9866 29.7543 91.3747 29.9237 91.914 29.9237C92.3431 29.9237 92.6741 29.7264 92.906 29.3307C93.1403 28.9328 93.2581 28.3487 93.2581 27.5785C93.2581 26.0425 92.7969 25.2733 91.8744 25.2733Z" fill="white"/>
<path d="M106.669 32.4161L106.208 31.2257H105.99C105.685 31.666 105.258 32.0037 104.71 32.2378C104.161 32.4696 103.517 32.5856 102.781 32.5856C101.61 32.5856 100.699 32.2813 100.048 31.6715C99.3957 31.0596 99.0708 30.1957 99.0708 29.0811V22.8523H102.741V28.0779C102.741 28.7021 102.84 29.1747 103.039 29.4957C103.237 29.8167 103.561 29.9773 104.011 29.9773C104.642 29.9773 105.092 29.7543 105.36 29.3085C105.63 28.8604 105.766 28.1035 105.766 27.039V22.8523H109.437V32.4161H106.669Z" fill="white"/>
<path d="M122.015 22.8522V24.4439L120.557 24.9255C120.758 25.2532 120.86 25.6333 120.86 26.0669C120.86 27.0991 120.455 27.8983 119.649 28.4656C118.846 29.0341 117.646 29.3172 116.049 29.3172C115.654 29.3172 115.342 29.2949 115.111 29.2504C115.024 29.3964 114.982 29.5346 114.982 29.665C114.982 29.8289 115.129 29.9537 115.424 30.0395C115.718 30.1265 116.101 30.1688 116.574 30.1688H118.34C120.727 30.1688 121.921 31.0728 121.921 32.8797C121.921 34.0445 121.367 34.9508 120.26 35.5995C119.155 36.2471 117.604 36.5715 115.607 36.5715C114.1 36.5715 112.936 36.3441 112.121 35.8893C111.303 35.4368 110.896 34.7858 110.896 33.9364C110.896 32.7917 111.684 32.0549 113.261 31.7249C112.936 31.6001 112.654 31.4017 112.413 31.1275C112.171 30.851 112.051 30.5779 112.051 30.3071C112.051 30.0072 112.142 29.7442 112.324 29.5179C112.505 29.2894 112.884 29.0174 113.46 28.7019C112.907 28.4824 112.473 28.139 112.155 27.672C111.84 27.2061 111.684 26.6365 111.684 25.9643C111.684 24.9243 112.077 24.1173 112.865 23.5433C113.654 22.9703 114.781 22.6827 116.247 22.6827C116.442 22.6827 116.778 22.7028 117.254 22.7407C117.73 22.7797 118.08 22.8165 118.305 22.8522H122.015ZM113.995 33.6065C113.995 33.8762 114.157 34.0947 114.481 34.2619C114.809 34.428 115.243 34.5116 115.786 34.5116C116.675 34.5116 117.388 34.4102 117.923 34.2084C118.459 34.0089 118.727 33.7514 118.727 33.4371C118.727 33.184 118.563 33.0057 118.236 32.902C117.911 32.7972 117.445 32.746 116.837 32.746H115.404C115.007 32.746 114.672 32.8284 114.402 32.9956C114.131 33.1617 113.995 33.3657 113.995 33.6065ZM115.151 25.9822C115.151 26.9631 115.529 27.4535 116.287 27.4535C116.636 27.4535 116.907 27.3331 117.095 27.0924C117.286 26.8494 117.383 26.4849 117.383 26C117.383 25.0102 117.017 24.5153 116.287 24.5153C115.529 24.5153 115.151 25.0046 115.151 25.9822Z" fill="white"/>
<path d="M130.016 32.5854C129.476 32.5854 128.994 32.5052 128.567 32.3447C128.143 32.1842 127.722 31.8966 127.303 31.4797H127.134C127.245 32.1485 127.303 32.5643 127.303 32.7281V36.5715H123.632V22.8522H126.618L127.134 24.0649H127.303C127.983 23.1442 128.926 22.6827 130.13 22.6827C131.306 22.6827 132.229 23.123 132.897 24.0025C133.568 24.8797 133.904 26.0836 133.904 27.614C133.904 29.1545 133.554 30.3684 132.857 31.2568C132.159 32.1429 131.212 32.5854 130.016 32.5854ZM128.786 25.2732C128.246 25.2732 127.869 25.4471 127.655 25.7949C127.439 26.1404 127.322 26.6532 127.303 27.3331V27.5962C127.303 28.4166 127.424 29.0096 127.67 29.3752C127.914 29.7408 128.299 29.9236 128.825 29.9236C129.294 29.9236 129.635 29.743 129.847 29.3797C130.061 29.0174 130.169 28.4166 130.169 27.5784C130.169 26.758 130.061 26.1694 129.847 25.8127C129.635 25.4538 129.281 25.2732 128.786 25.2732Z" fill="white"/>
<path d="M141.135 32.5854C139.366 32.5854 137.991 32.1619 137.009 31.3147C136.029 30.4676 135.541 29.2626 135.541 27.6987C135.541 26.0825 135.993 24.843 136.899 23.9802C137.808 23.1152 139.104 22.6827 140.788 22.6827C142.391 22.6827 143.63 23.0595 144.503 23.8108C145.376 24.5598 145.812 25.6422 145.812 27.0567V28.5236H139.25C139.273 29.0586 139.49 29.4778 139.9 29.7809C140.309 30.0841 140.869 30.2357 141.577 30.2357C142.221 30.2357 142.814 30.1822 143.357 30.0752C143.899 29.966 144.485 29.7787 145.118 29.5134V31.8854C144.542 32.1507 143.947 32.3335 143.332 32.4339C142.72 32.5342 141.988 32.5854 141.135 32.5854ZM140.922 24.9255C140.488 24.9255 140.126 25.0492 139.836 25.2955C139.544 25.5396 139.374 25.9231 139.325 26.4459H142.479C142.466 25.9855 142.321 25.6165 142.043 25.3401C141.765 25.0637 141.391 24.9255 140.922 24.9255Z" fill="white"/>
<path d="M151.195 32.5856C150.438 32.5856 149.775 32.3927 149.207 32.0059C148.641 31.6169 148.202 31.0451 147.892 30.2893C147.585 29.5347 147.431 28.653 147.431 27.6454C147.431 26.0937 147.778 24.8799 148.473 24.0026C149.167 23.1231 150.122 22.6829 151.339 22.6829C151.931 22.6829 152.45 22.7899 152.897 23.0039C153.346 23.2179 153.756 23.5779 154.127 24.0829H154.201C154.082 23.3338 154.023 22.5848 154.023 21.8357V19.2809H157.723V32.4161H154.955L154.166 31.2078H154.023C153.39 32.1263 152.448 32.5856 151.195 32.5856ZM152.698 29.9772C153.286 29.9772 153.701 29.8112 153.943 29.4779C154.184 29.1457 154.315 28.6329 154.335 27.9396V27.681C154.335 26.8372 154.199 26.2364 153.928 25.8797C153.66 25.5208 153.239 25.3402 152.664 25.3402C152.18 25.3402 151.806 25.5453 151.538 25.9555C151.272 26.3635 151.141 26.9442 151.141 27.6989C151.141 28.439 151.275 29.0041 151.543 29.3932C151.813 29.7833 152.199 29.9772 152.698 29.9772Z" fill="white"/>
<path d="M163.952 32.4161H160.277V22.8523H163.952V32.4161ZM160.182 20.4714C160.182 19.9753 160.336 19.6064 160.644 19.3656C160.951 19.1226 161.445 19 162.127 19C162.811 19 163.308 19.1248 163.619 19.3745C163.933 19.622 164.091 19.9876 164.091 20.4714C164.091 21.4378 163.436 21.9204 162.127 21.9204C160.83 21.9204 160.182 21.4378 160.182 20.4714Z" fill="white"/>
<path d="M173.456 32.416L172.751 31.1498H172.677C172.181 31.7026 171.676 32.0805 171.164 32.2823C170.651 32.484 169.989 32.5854 169.175 32.5854C168.174 32.5854 167.382 32.3157 166.805 31.774C166.229 31.2334 165.942 30.4743 165.942 29.4956C165.942 28.4768 166.335 27.7188 167.122 27.2217C167.912 26.7223 169.056 26.4414 170.554 26.379L172.33 26.3299V26.1917C172.33 25.4048 171.896 25.0102 171.03 25.0102C170.257 25.0102 169.271 25.2465 168.074 25.7191L167.013 23.5433C168.253 22.9703 169.818 22.6827 171.71 22.6827C173.075 22.6827 174.131 22.9882 174.879 23.5968C175.626 24.2031 176 25.0525 176 26.1427V32.416H173.456ZM170.733 30.2536C171.175 30.2536 171.556 30.1276 171.874 29.8746C172.191 29.6227 172.35 29.2927 172.35 28.8848V28.1446L171.502 28.1758C170.294 28.2182 169.691 28.6172 169.691 29.3752C169.691 29.9615 170.038 30.2536 170.733 30.2536Z" fill="white"/>
<path d="M7.03353 42.8596V2.63161H49.0039V42.8596H7.03353ZM6.03543 51.3208C3.81384 51.3208 2.00598 49.8003 2.00598 47.9284C2.00598 46.0593 3.81384 44.5388 6.03543 44.5388H45.5234C44.5607 45.4367 43.9731 46.6263 43.9731 47.9284C43.9731 49.2319 44.5607 50.4215 45.525 51.3208H6.03543ZM2.00598 6.02396C2.00598 4.44511 3.30029 3.12669 5.03893 2.74962V42.9437C3.87984 43.1078 2.83988 43.55 2.00598 44.1875V6.02396ZM50.002 44.5388C50.5542 44.5388 51.0001 44.1631 51.0001 43.6992V1.792C51.0001 1.32811 50.5542 0.952393 50.002 0.952393H6.03543C2.7127 0.952393 0.00976338 3.22842 0.00976338 6.02396V47.2448C0.00976338 47.2448 -0.0964869 48.2323 0.400957 49.6768C0.988551 51.3777 3.44518 53 6.03543 53H50.002C50.5542 53 51.0001 52.6256 51.0001 52.1604C51.0001 51.6965 50.5542 51.3208 50.002 51.3208C47.7788 51.3208 45.9693 49.8003 45.9693 47.9284C45.9693 46.0593 47.7788 44.5388 50.002 44.5388Z" fill="white"/>
<mask id="mask0_254_393" style="mask-type:luminance" maskUnits="userSpaceOnUse" x="12" y="16" width="31" height="26">
<path d="M12.771 16.2971H42.7528V41.2982H12.771V16.2971Z" fill="white"/>
</mask>
<g mask="url(#mask0_254_393)">
<path d="M42.6965 30.6883C42.6965 30.9609 42.579 31.1969 42.3424 31.3963C42.1057 31.5957 41.8256 31.6947 41.502 31.6947H37.3212C37.3212 33.4879 36.9043 35.0084 36.0704 36.2563L39.9533 39.5442C40.19 39.7436 40.3075 39.9796 40.3075 40.2522C40.3075 40.5249 40.19 40.7609 39.9533 40.9589C39.728 41.1583 39.4495 41.2587 39.113 41.2587C38.7765 41.2587 38.4964 41.1583 38.2727 40.9589L34.5764 37.8609C34.5137 37.9138 34.4203 37.9816 34.2963 38.0657C34.1724 38.1485 33.91 38.299 33.5123 38.5133C33.1147 38.729 32.709 38.9203 32.2985 39.0871C31.888 39.2553 31.3777 39.4072 30.7675 39.5442C30.1574 39.6798 29.5537 39.749 28.9565 39.749V25.6547H26.5674V39.749C25.9332 39.749 25.3021 39.6771 24.6727 39.5361C24.0448 39.395 23.5039 39.2214 23.0483 39.0166C22.5943 38.8117 22.1838 38.6083 21.8168 38.4035C21.4497 38.1987 21.1793 38.0291 21.0054 37.8921L20.7253 37.6724L17.3092 40.9277C17.0597 41.1475 16.7603 41.2587 16.4125 41.2587C16.1131 41.2587 15.8459 41.1746 15.6092 41.0064C15.3726 40.8179 15.2454 40.5846 15.2277 40.3065C15.2084 40.0284 15.3049 39.7856 15.5158 39.5754L19.2877 36.0054C18.5649 34.809 18.2043 33.3726 18.2043 31.6947H14.0235C13.6999 31.6947 13.4198 31.5957 13.1832 31.3963C12.9465 31.1969 12.8274 30.9609 12.8274 30.6883C12.8274 30.4157 12.9465 30.1796 13.1832 29.9802C13.4198 29.7809 13.6999 29.6818 14.0235 29.6818H18.2043V25.0579L14.9749 22.337C14.7383 22.1376 14.6208 21.9016 14.6208 21.6289C14.6208 21.3563 14.7383 21.1203 14.9749 20.9209C15.2116 20.7215 15.4917 20.6211 15.8153 20.6211C16.1389 20.6211 16.419 20.7215 16.6556 20.9209L19.885 23.6418H35.6406L38.8699 20.9209C39.1066 20.7215 39.3867 20.6211 39.7103 20.6211C40.0338 20.6211 40.3139 20.7215 40.5506 20.9209C40.7872 21.1203 40.9048 21.3563 40.9048 21.6289C40.9048 21.9016 40.7872 22.1376 40.5506 22.337L37.3212 25.0579V29.6818H41.502C41.8256 29.6818 42.1057 29.7809 42.3424 29.9802C42.579 30.1796 42.6965 30.4157 42.6965 30.6883ZM33.7361 21.6289H21.7894C21.7894 20.2345 22.3706 19.0463 23.5345 18.0657C24.6984 17.085 26.107 16.5953 27.762 16.5953C29.4169 16.5953 30.8271 17.085 31.991 18.0657C33.1549 19.0463 33.7361 20.2345 33.7361 21.6289Z" fill="white"/>
</g>
<path d="M13.0974 6H37.8501Z" fill="white"/>
<path d="M13.0974 6H37.8501" stroke="white" stroke-width="3"/>
<path d="M13.0974 11.7556L42.4912 11.7556Z" fill="white"/>
<path d="M13.0974 11.7556L42.4912 11.7556" stroke="white" stroke-width="3"/>
</svg>
